<svg id="wave" style="transform:rotate(0deg); transition: 0.3s" viewBox="0 0 1440 100" version="1.1" xmlns="http://www.w3.org/2000/svg"><defs><linearGradient id="sw-gradient-0" x1="0" x2="0" y1="1" y2="0"><stop stop-color="rgba(252, 185, 49, 1)" offset="0%"></stop><stop stop-color="rgba(186, 106, 24, 1)" offset="100%"></stop></linearGradient></defs><path style="transform:translate(0, 0px); opacity:1" fill="url(#sw-gradient-0)" d="M0,40L160,0L320,70L480,30L640,20L800,70L960,90L1120,10L1280,80L1440,70L1600,50L1760,10L1920,80L2080,40L2240,90L2400,80L2560,10L2720,30L2880,0L3040,90L3200,10L3360,80L3520,60L3680,40L3840,60L3840,100L3680,100L3520,100L3360,100L3200,100L3040,100L2880,100L2720,100L2560,100L2400,100L2240,100L2080,100L1920,100L1760,100L1600,100L1440,100L1280,100L1120,100L960,100L800,100L640,100L480,100L320,100L160,100L0,100Z"></path><defs><linearGradient id="sw-gradient-1" x1="0" x2="0" y1="1" y2="0"><stop stop-color="rgba(186, 106, 24, 1)" offset="0%"></stop><stop stop-color="rgba(252, 185, 49, 1)" offset="100%"></stop></linearGradient></defs><path style="transform:translate(0, 50px); opacity:0.9" fill="url(#sw-gradient-1)" d="M0,40L160,60L320,90L480,90L640,40L800,50L960,90L1120,30L1280,40L1440,40L1600,50L1760,0L1920,10L2080,70L2240,40L2400,50L2560,10L2720,0L2880,90L3040,80L3200,70L3360,60L3520,20L3680,90L3840,30L3840,100L3680,100L3520,100L3360,100L3200,100L3040,100L2880,100L2720,100L2560,100L2400,100L2240,100L2080,100L1920,100L1760,100L1600,100L1440,100L1280,100L1120,100L960,100L800,100L640,100L480,100L320,100L160,100L0,100Z"></path><defs><linearGradient id="sw-gradient-2" x1="0" x2="0" y1="1" y2="0"><stop stop-color="rgba(255, 242, 210, 1)" offset="0%"></stop><stop stop-color="rgba(186, 106, 24, 1)" offset="100%"></stop></linearGradient></defs><path style="transform:translate(0, 100px); opacity:0.8" fill="url(#sw-gradient-2)" d="M0,60L160,50L320,40L480,30L640,60L800,70L960,60L1120,90L1280,70L1440,70L1600,20L1760,20L1920,50L2080,80L2240,70L2400,90L2560,20L2720,80L2880,70L3040,90L3200,40L3360,90L3520,20L3680,90L3840,0L3840,100L3680,100L3520,100L3360,100L3200,100L3040,100L2880,100L2720,100L2560,100L2400,100L2240,100L2080,100L1920,100L1760,100L1600,100L1440,100L1280,100L1120,100L960,100L800,100L640,100L480,100L320,100L160,100L0,100Z"></path></svg>